<svg xmlns="http://www.w3.org/2000/svg" viewBox="0 0 800 640" width="800" height="640" role="img" preserveAspectRatio="xMidYMid slice">
<defs>
<linearGradient id="bgm" x1="0.1" y1="0" x2="0.9" y2="1">
<stop offset="0" stop-color="#123055"/><stop offset="1" stop-color="#04101F"/>
</linearGradient>
<linearGradient id="shm" x1="0" y1="0" x2="0" y2="1">
<stop offset="0" stop-color="#fff" stop-opacity=".10"/><stop offset="0.55" stop-color="#fff" stop-opacity="0"/>
</linearGradient>
<radialGradient id="glm" cx="0.28" cy="0.18" r="0.85">
<stop offset="0" stop-color="#6BA5F8" stop-opacity=".30"/><stop offset="1" stop-color="#6BA5F8" stop-opacity="0"/>
</radialGradient>
<radialGradient id="vgm" cx="0.5" cy="0.45" r="0.78">
<stop offset="0.45" stop-color="#000" stop-opacity="0"/><stop offset="1" stop-color="#000" stop-opacity=".48"/>
</radialGradient>
<pattern id="grm" width="44" height="44" patternUnits="userSpaceOnUse">
<path d="M44 0H0V44" fill="none" stroke="#fff" stroke-opacity=".055" stroke-width="1"/>
</pattern>
</defs>
<rect width="800" height="640" fill="url(#bgm)"/>
<rect width="800" height="640" fill="url(#grm)"/>
<rect width="800" height="640" fill="url(#glm)"/>
<rect width="800" height="640" fill="url(#shm)"/><circle cx="330" cy="330" r="100" fill="none" stroke="#6BA5F8" stroke-opacity="0.4" stroke-width="1.4"/><circle cx="330" cy="330" r="176" fill="none" stroke="#6BA5F8" stroke-opacity="0.26" stroke-width="1.4"/><circle cx="330" cy="330" r="252" fill="none" stroke="#6BA5F8" stroke-opacity="0.16" stroke-width="1.4"/><circle cx="330" cy="330" r="326" fill="none" stroke="#6BA5F8" stroke-opacity="0.09" stroke-width="1.4"/><circle cx="330" cy="330" r="100" fill="#6BA5F8" fill-opacity=".07"/><path d="M330 30v580M24 330h752" stroke="#fff" stroke-opacity=".07" stroke-width="1"/><path d="M330 330L474 236" stroke="#6BA5F8" stroke-opacity=".34" stroke-width="1.3" stroke-dasharray="5 7"/><path d="M330 330L246 238" stroke="#6BA5F8" stroke-opacity=".34" stroke-width="1.3" stroke-dasharray="5 7"/><path d="M330 330L404 400" stroke="#6BA5F8" stroke-opacity=".34" stroke-width="1.3" stroke-dasharray="5 7"/><path d="M330 330L254 420" stroke="#6BA5F8" stroke-opacity=".34" stroke-width="1.3" stroke-dasharray="5 7"/><path d="M330 330L330 512" stroke="#6BA5F8" stroke-opacity=".34" stroke-width="1.3" stroke-dasharray="5 7"/><circle cx="330" cy="330" r="19" fill="#FFC20E" fill-opacity=".16"/><circle cx="330" cy="330" r="10" fill="#FFC20E"/><text x="352" y="336" text-anchor="start" font-family="Manrope, Inter, system-ui, sans-serif" font-size="18" font-weight="800" fill="#FFFFFF">São José</text><circle cx="474" cy="236" r="15" fill="#6BA5F8" fill-opacity=".16"/><circle cx="474" cy="236" r="6" fill="#6BA5F8"/><text x="496" y="242" text-anchor="start" font-family="Manrope, Inter, system-ui, sans-serif" font-size="18" font-weight="600" fill="#CBD9EA">Florianópolis</text><circle cx="246" cy="238" r="15" fill="#6BA5F8" fill-opacity=".16"/><circle cx="246" cy="238" r="6" fill="#6BA5F8"/><text x="224" y="244" text-anchor="end" font-family="Manrope, Inter, system-ui, sans-serif" font-size="18" font-weight="600" fill="#CBD9EA">Biguaçu</text><circle cx="404" cy="400" r="15" fill="#6BA5F8" fill-opacity=".16"/><circle cx="404" cy="400" r="6" fill="#6BA5F8"/><text x="426" y="406" text-anchor="start" font-family="Manrope, Inter, system-ui, sans-serif" font-size="18" font-weight="600" fill="#CBD9EA">Barreiros</text><circle cx="254" cy="420" r="15" fill="#6BA5F8" fill-opacity=".16"/><circle cx="254" cy="420" r="6" fill="#6BA5F8"/><text x="232" y="426" text-anchor="end" font-family="Manrope, Inter, system-ui, sans-serif" font-size="18" font-weight="600" fill="#CBD9EA">Kobrasol</text><circle cx="330" cy="512" r="15" fill="#6BA5F8" fill-opacity=".16"/><circle cx="330" cy="512" r="6" fill="#6BA5F8"/><text x="352" y="518" text-anchor="start" font-family="Manrope, Inter, system-ui, sans-serif" font-size="18" font-weight="600" fill="#CBD9EA">Palhoça</text><rect width="800" height="640" fill="url(#vgm)"/></svg>